<?xml version="1.0" encoding="iso-8859-1"?>
<!-- Generator: Adobe Illustrator 19.0.0, SVG Export Plug-In . SVG Version: 6.00 Build 0)  -->
<svg version="1.1" id="Capa_1" xmlns="http://www.w3.org/2000/svg" xmlns:xlink="http://www.w3.org/1999/xlink" x="0px" y="0px"
	 viewBox="0 0 512 512" style="enable-background:new 0 0 512 512;" xml:space="preserve">
<polygon style="fill:#7FE4F4;" points="15.676,290.93 92.229,366.595 174.613,448.024 239.341,512 463.007,290.93 "/>
<g>
	<path style="fill:#086987;" d="M422.532,291.962v-46.443h21.85c2.892,0,5.464,1.84,6.397,4.577l12.228,40.833L422.532,291.962z"/>
	<path style="fill:#086987;" d="M15.676,290.93l14.291-40.833c0.933-2.737,3.505-4.577,6.397-4.577h21.85v46.443L15.676,290.93z"/>
</g>
<path style="fill:#E0E0E3;" d="M37.573,445.223c-7.012,0-12.717-5.704-12.717-12.717c0-7.013,5.705-12.717,12.717-12.717h18.202
	c-2.586-4.525-3.949-9.654-3.949-14.897c0-16.573,13.483-30.056,30.056-30.056c1.365,0,2.745,0.095,4.106,0.281
	c4.876-10.717,15.573-17.619,27.362-17.619c16.573,0,30.056,13.483,30.056,30.056c0,1.592-0.133,3.216-0.396,4.833
	c6.685,2.24,11.312,8.636,11.312,15.717c0,4.401-1.744,8.589-4.828,11.685h32.568c7.012,0,12.717,5.704,12.717,12.717
	c0,7.013-5.705,12.717-12.717,12.717L37.573,445.223L37.573,445.223z"/>
<polygon style="fill:#05C7D1;" points="146.275,293.195 332.488,290.93 239.341,512 "/>
<path style="fill:#656572;" d="M134.139,59.748H67.95c-5.937,0-10.769,4.831-10.769,10.769v221.445h68.116h19.609V146.441V70.516
	C144.907,64.578,140.076,59.748,134.139,59.748z"/>
<path style="fill:#585868;" d="M87.206,86.347c0-5.937,4.831-10.769,10.769-10.769h46.933v-5.063
	c0-5.937-4.831-10.769-10.769-10.769H67.95c-5.937,0-10.769,4.831-10.769,10.769v221.445h30.024V86.347H87.206z"/>
<g>
	<path style="fill:#C7C5CC;" d="M343.063,195.98v-55.731h51.118c5.398,0,9.774,4.376,9.774,9.774v45.958H343.063z"/>
	<rect x="343.067" y="220.747" style="fill:#C7C5CC;" width="80.501" height="71.212"/>
</g>
<path style="fill:#4B4B5B;" d="M343.063,221.782v-26.834h81.213c4.729,0,8.576,3.848,8.576,8.576v9.682
	c0,4.729-3.848,8.576-8.576,8.576h-81.213V221.782z"/>
<g>
	<rect x="343.067" y="220.747" style="fill:#AEABB7;" width="18.972" height="71.212"/>
	<rect x="343.067" y="140.247" style="fill:#AEABB7;" width="18.972" height="55.731"/>
</g>
<rect x="343.067" y="194.946" style="fill:#3C3C4C;" width="18.972" height="26.834"/>
<path style="fill:#6E6E7A;" d="M332.375,111.351h-60.158c-6.463,0-11.719,5.257-11.719,11.719v74.974v93.918h10.453h73.144V123.07
	C344.095,116.607,338.838,111.351,332.375,111.351z"/>
<path style="fill:#60606D;" d="M301.752,225.621l-9.076-24.636c-0.879-2.387-3.154-3.973-5.698-3.973h-5.579v-73.942
	c0-6.463,5.257-11.719,11.719-11.719h-20.899c-6.463,0-11.719,5.257-11.719,11.719v73.942v1.032v93.917h10.453h10.447h7.007v-54.699
	h4.932c2.919,0,5.744-1.324,7.407-3.722C302.372,231.191,302.739,228.305,301.752,225.621z"/>
<rect x="210.963" y="236.228" style="fill:#656572;" width="61.026" height="55.731"/>
<rect x="210.963" y="224.514" style="fill:#4F4F5E;" width="25.743" height="67.445"/>
<path style="fill:#4B4B5B;" d="M211.991,237.262v-40.25h58.565c2.544,0,4.819,1.586,5.698,3.973l9.076,24.636
	c0.988,2.683,0.62,5.57-1.009,7.919c-1.664,2.399-4.489,3.722-7.407,3.722L211.991,237.262z"/>
<path style="fill:#C7C5CC;" d="M124.266,291.962V154.406c0-4.961,4.036-8.998,8.996-8.998h69.731c4.961,0,8.996,4.036,8.996,8.998
	v137.555h-87.724V291.962z"/>
<rect x="211.996" y="197.01" style="fill:#3C3C4C;" width="24.711" height="40.25"/>
<path style="fill:#A29DB2;" d="M158.215,171.951c0-4.961,4.036-8.998,8.996-8.998h44.779v-8.548c0-4.961-4.036-8.998-8.996-8.998
	h-69.731c-4.961,0-8.996,4.036-8.996,8.998v137.555h33.949V171.951z"/>
<path style="fill:#E0E0E3;" d="M367.502,72.02c-5.793,0-10.507-4.713-10.507-10.507s4.713-10.507,10.507-10.507h14.744
	c-2.074-3.683-3.165-7.848-3.165-12.104c0-13.622,11.082-24.705,24.705-24.705c1.104,0,2.215,0.074,3.305,0.221
	C411.112,5.647,419.886,0,429.552,0c13.621,0,24.704,11.082,24.704,24.705c0,1.282-0.105,2.589-0.313,3.893
	c5.471,1.869,9.252,7.121,9.252,12.933c0,3.552-1.38,6.939-3.825,9.475h26.445c5.793,0,10.507,4.713,10.507,10.507
	s-4.713,10.507-10.507,10.507H367.502V72.02z"/>
<g>
	<path style="fill:#C7C5CC;" d="M66.804,435.939L66.804,435.939c7.998,0,14.342-6.574,14.256-14.573
		c-0.001-0.108-0.002-0.216-0.002-0.324c0-16.573,13.483-30.056,30.056-30.056c1.365,0,2.745,0.095,4.106,0.281
		c4.524-9.941,14.058-16.59,24.824-17.502c-5.007-9.654-15.089-16.269-26.693-16.269c-11.789,0-22.486,6.902-27.362,17.619
		c-1.36-0.187-2.739-0.281-4.106-0.281c-16.573,0-30.056,13.483-30.056,30.056c0,5.242,1.362,10.372,3.949,14.897H37.945
		c-6.619,0-12.413,4.903-13.032,11.492c-0.711,7.561,5.243,13.942,12.659,13.942H54.57
		C56.075,439.874,60.983,435.939,66.804,435.939z"/>
	<path style="fill:#C7C5CC;" d="M396.733,67.158L396.733,67.158c6.516,0,11.636-5.369,11.58-11.884
		c-0.001-0.073-0.001-0.147-0.001-0.219c0-13.622,11.082-24.705,24.705-24.705c1.104,0,2.215,0.074,3.305,0.221
		c3.194-6.967,9.392-11.952,16.649-13.712C449.684,7.073,440.431,0,429.552,0c-9.666,0-18.44,5.647-22.462,14.419
		c-1.091-0.147-2.2-0.221-3.305-0.221c-13.622,0-24.705,11.082-24.705,24.705c0,4.255,1.092,8.42,3.165,12.104H367.81
		c-5.468,0-10.255,4.05-10.768,9.493c-0.588,6.247,4.332,11.521,10.459,11.521h20.383C389.756,69.102,393.019,67.158,396.733,67.158
		z"/>
</g>
<g>
</g>
<g>
</g>
<g>
</g>
<g>
</g>
<g>
</g>
<g>
</g>
<g>
</g>
<g>
</g>
<g>
</g>
<g>
</g>
<g>
</g>
<g>
</g>
<g>
</g>
<g>
</g>
<g>
</g>
</svg>
